<svg width="238" height="45" viewBox="0 0 238 45" fill="none" xmlns="http://www.w3.org/2000/svg">
<path d="M3.34415 25.3455L0 31.6864L9.99063 34.7706L13.0597 44.8106L19.3694 41.4499L15.3221 29.4139L3.34415 25.3455Z" fill="white"/>
<path d="M29.3078 29.4153L25.2539 41.469L31.5307 44.812L34.5997 34.772L44.5903 31.6878L41.2528 25.3579L29.3078 29.4153Z" fill="white"/>
<path d="M41.2691 19.4212L44.5891 13.1256L34.5985 10.0402L31.5294 0.000244141L25.2637 3.33769L29.3066 15.3583L41.2691 19.4212Z" fill="white"/>
<path d="M19.3584 3.35514L13.0597 0L9.99063 10.04L0 13.1253L3.32654 19.432L15.3221 15.358L19.3584 3.35514Z" fill="white"/>
<path d="M59.3145 35.3635V6.96533H65.1675L77.6616 25.4441V6.96533H83.4751V35.3624H77.622L65.1081 16.6404V35.3624H59.3155L59.3145 35.3635Z" fill="white"/>
<path d="M103.598 35.9725C101.444 35.9725 99.4538 35.5976 97.6238 34.8468C95.7939 34.0959 94.2027 33.052 92.8503 31.7128C91.4978 30.3736 90.4514 28.8055 89.7119 27.0074C88.9713 25.2093 88.6016 23.2619 88.6016 21.1652C88.6016 19.0685 88.9713 17.1023 89.7119 15.3031C90.4514 13.505 91.4978 11.9358 92.8503 10.5977C94.2027 9.25855 95.7939 8.21795 97.6238 7.47371C99.4538 6.73058 101.446 6.35791 103.598 6.35791C105.75 6.35791 107.739 6.73611 109.562 7.49362C111.386 8.25112 112.973 9.3061 114.326 10.6574C115.678 12.0099 116.731 13.5813 117.485 15.3739C118.239 17.1654 118.615 19.0962 118.615 21.1652C118.615 23.2343 118.239 25.2082 117.485 27.0074C116.731 28.8055 115.678 30.3747 114.326 31.7128C112.973 33.052 111.386 34.0959 109.562 34.8468C107.739 35.5976 105.75 35.9725 103.598 35.9725ZM103.598 30.3338C104.849 30.3338 106.007 30.1171 107.07 29.6847C108.133 29.2523 109.062 28.633 109.855 27.8291C110.648 27.024 111.265 26.0608 111.701 24.9384C112.138 23.8159 112.357 22.5586 112.357 21.1652C112.357 19.3129 111.973 17.7006 111.206 16.3282C110.439 14.9559 109.396 13.8909 108.078 13.1334C106.758 12.3759 105.265 11.9977 103.597 11.9977C102.359 11.9977 101.205 12.2145 100.135 12.6469C99.0654 13.0804 98.1366 13.6985 97.3498 14.5025C96.563 15.3075 95.9501 16.2707 95.5132 17.3932C95.0753 18.5156 94.8574 19.773 94.8574 21.1663C94.8574 23.0197 95.2403 24.632 96.0073 26.0044C96.7743 27.3768 97.8175 28.4417 99.1358 29.1992C100.454 29.9567 101.942 30.3349 103.597 30.3349L103.598 30.3338Z" fill="white"/>
<path d="M123.762 35.3635V6.96533H129.515L140.514 25.1798L138.153 25.2207L148.649 6.96533H154.361V35.3624H148.568L148.67 14.714L149.739 15.0999L141.101 29.7646H137.024L128.123 15.0999L129.132 14.714L129.233 35.3624H123.763L123.762 35.3635Z" fill="white"/>
<path d="M158.055 35.3624L168.752 6.96533H175.553L186.412 35.3624H179.691L177.491 29.2769H166.734L164.594 35.3624H158.055ZM168.147 24.2055H176.039L172.042 13.5562L168.147 24.2055Z" fill="white"/>
<path d="M190.107 35.3635V6.96533H199.512C202.392 6.96533 204.931 7.56691 207.131 8.77008C209.331 9.97435 211.046 11.6442 212.278 13.7807C213.509 15.9172 214.124 18.3854 214.124 21.1843C214.124 23.281 213.771 25.1974 213.064 26.9347C212.358 28.672 211.359 30.1704 210.067 31.4278C208.775 32.6851 207.234 33.6561 205.445 34.3384C203.656 35.0218 201.677 35.3624 199.511 35.3624H190.105L190.107 35.3635ZM196.081 29.7646H199.088C200.406 29.7646 201.601 29.5788 202.671 29.2073C203.741 28.8357 204.666 28.2772 205.446 27.5341C206.226 26.791 206.825 25.8875 207.242 24.8259C207.659 23.7643 207.868 22.5512 207.868 21.1843C207.868 19.3453 207.502 17.7838 206.768 16.4988C206.034 15.2139 205.008 14.2374 203.69 13.5683C202.371 12.8993 200.837 12.5642 199.088 12.5642H196.081V29.7646Z" fill="white"/>
<path d="M217.474 35.3624V30.3529L230.653 12.4625H217.937V6.96533H237.879V11.9549L224.76 29.8652H238V35.3624H217.473H217.474Z" fill="white"/>
</svg>
