<svg
  width="32"
  height="32"
  viewBox="0 0 32 32"
  fill="none"
  xmlns="http://www.w3.org/2000/svg"
>
  <rect width="32" height="32" fill="black" />
  <path
    fillRule="evenodd"
    clipRule="evenodd"
    d="M25.8802 14.2731L27.5714 11.0819L22.4821 9.51788L20.9187 4.42859L17.7269 6.12035L19.7864 12.2136L25.8802 14.2731ZM4.85706 20.4903L6.56059 17.2761L12.6622 19.3384L14.724 25.4395L11.5097 27.143L9.94634 22.0537L4.85706 20.4903ZM17.7213 25.4485L19.7864 19.3384L25.8712 17.2818L27.5714 20.4904L22.4821 22.0538L20.9187 27.1431L17.7213 25.4485ZM11.5097 4.42859L14.7184 6.12932L12.6622 12.2136L6.55162 14.2787L4.85706 11.0819L9.94634 9.51787L11.5097 4.42859Z"
    fill="white"
  />
</svg>
