<svg width="477" height="80" viewBox="0 0 477 80" fill="none" xmlns="http://www.w3.org/2000/svg">
<path d="M53.8633 0.803585C65.8675 0.588756 78.5038 0.786358 90.5611 0.779549L90.5562 15.5316L68.1091 15.545L68.1057 31.295L82.0141 31.2929L81.9964 46.0846C78.8763 46.1331 75.6931 46.1129 72.5671 46.1259L68.097 46.1101L68.0942 78.1969C63.3547 78.2569 58.6149 78.2725 53.8754 78.2439L53.8633 0.803585Z" fill="#FEFEFE"/>
<path d="M432.855 0.785018L476.703 0.774414L476.69 15.5267L461.907 15.5382C461.55 31.0646 461.845 47.6617 461.845 63.2706L461.823 78.2302C457.191 78.3378 452.212 78.2644 447.555 78.2772V15.5438L432.868 15.5503L432.855 0.785018Z" fill="#FEFEFE"/>
<path d="M342.308 0.780532C346.626 0.812372 350.941 0.807708 355.258 0.766602C357.731 8.28958 360.278 15.7878 362.903 23.2603C366.209 33.1004 369.607 42.9086 373.099 52.6837C374.124 50.1038 375.556 44.7485 376.416 41.9258L382.443 22.5467C383.254 19.9165 384.878 14.2418 386.021 11.9188L386.015 38.0113C386.031 42.8819 386.152 48.6032 385.922 53.4271C385.841 55.0975 383.648 61.3443 383.033 63.2081L378.128 78.2308L367.939 78.2495L350.487 28.2749L345.402 13.9107C344.37 11.0379 343.243 7.99739 342.401 5.06473C342.23 4.46328 342.295 1.55714 342.308 0.780532Z" fill="#FEFEFE"/>
<path d="M271.911 0.787598L284.868 0.819159C288.794 12.7079 292.818 24.5634 296.943 36.3847C298.829 41.7674 300.574 47.332 302.64 52.6372L315.361 11.6189C315.641 19.8831 315.404 29.869 315.404 38.2575C315.383 43.0727 315.6 48.7499 315.271 53.4951C315.14 55.3548 313.202 60.9079 312.516 62.9987C310.813 68.0592 309.161 73.1375 307.564 78.2323C304.311 78.3181 300.782 78.2528 297.508 78.2553C295.933 73.0747 293.339 66.3491 291.495 61.0435L278.811 24.7276L274.361 12.2147C272.617 7.30876 271.783 6.08325 271.911 0.787598Z" fill="#FEFEFE"/>
<path d="M187.728 0.20166L188.397 0.231821C188.985 1.22826 188.713 12.1825 188.703 14.087C185.176 15.62 183.36 18.3593 184.017 22.3213C184.267 23.8499 184.949 25.2753 185.981 26.4295C189.403 30.1782 198.71 33.3112 203.295 36.8581C208.385 40.5692 211.941 45.362 212.872 51.7671C214.831 65.2392 208.281 76.882 194.384 79.0163C193.97 79.1102 193.881 79.0595 193.485 78.9246C192.976 77.9109 193.178 66.5607 193.229 64.764C198.008 63.0508 199.47 59.6338 198.886 54.7132C198.204 48.9608 191.17 46.431 186.801 44.1671C184.153 42.9647 181.999 41.5011 179.552 39.9373C169.013 33.2011 167.211 18.012 174.137 8.06098C177.353 3.44029 181.992 1.1398 187.728 0.20166Z" fill="#FEFEFE"/>
<path d="M0.0703241 0.772963C4.09785 0.828901 8.12603 0.817677 12.1532 0.739258C20.8266 18.437 29.3541 36.2057 37.7346 54.044C40.0145 58.9628 42.9917 64.19 44.9183 69.1818C45.4945 70.6756 45.2255 76.349 45.1873 78.2062C41.2058 78.3207 36.9235 78.2395 32.9203 78.2348L9.98902 29.0559L3.66537 15.4327C0.331575 8.24824 -0.0371585 8.80871 0.0703241 0.772963Z" fill="#FEFEFE"/>
<path d="M116.266 0.195563C116.765 0.0889103 116.965 0.132847 117.474 0.193729C117.998 0.826336 117.761 12.6144 117.752 14.286C110.325 15.8276 111.486 23.6792 111.481 29.6713C111.473 38.7352 111.293 47.8821 111.678 56.9239C111.85 60.955 113.521 63.8094 117.727 64.5143C117.775 69.4054 117.785 74.2968 117.758 79.1882C114.018 78.7006 112.025 78.2594 108.649 76.6288C95.0618 69.8398 97.4584 52.5947 97.3534 40.1549C97.2136 23.5868 94.812 3.66497 116.266 0.195563Z" fill="#FEFEFE"/>
<path d="M218.694 0.778809L232.894 0.786241L232.903 37.8151C232.901 43.3007 232.833 48.8084 232.943 54.2918C233.049 59.5884 233.708 62.8744 239.249 64.458L239.24 79.172C226.243 77.9198 219.125 68.5512 218.753 55.8714C218.584 50.1 218.678 44.3284 218.68 38.5558L218.694 0.778809Z" fill="#FEFEFE"/>
<path d="M249.815 0.778809L264.004 0.781328L264.03 39.4613C264.033 44.2796 264.007 49.1555 264.02 53.9701C264.045 63.0044 261.955 70.2223 254.323 75.6187C250.732 77.9451 247.843 78.6267 243.704 79.1926L243.672 64.3925C249.811 62.9087 249.747 58.5627 249.824 53.1952C249.893 48.4332 249.836 43.6469 249.835 38.8836L249.815 0.778809Z" fill="#FEFEFE"/>
<path d="M412.777 0.799316L426.964 0.805658L426.976 50.6098C426.979 59.6566 427.153 69.2043 426.923 78.1955C422.45 78.3416 417.303 78.2418 412.773 78.2487L412.777 0.799316Z" fill="#FEFEFE"/>
<path d="M319.37 0.797994L333.57 0.791992L333.585 78.1981C329.115 78.3613 323.896 78.2453 319.367 78.2459L319.37 0.797994Z" fill="#FEFEFE"/>
<path d="M389.973 0.812491C394.35 0.663116 399.693 0.801952 404.144 0.799837V78.2327C399.422 78.2725 394.698 78.2725 389.973 78.233V0.812491Z" fill="#FEFEFE"/>
<path d="M0 18.6763C0.0541452 18.708 0.110496 18.7431 0.156751 18.7854C1.33008 19.8631 13.8567 47.5275 14.1698 49.6201C14.6445 52.7901 14.3522 56.3523 14.3466 59.5627L14.305 78.1877C9.81944 78.3764 4.59672 78.2483 0.058152 78.2465C0.0267149 58.4418 0.232796 38.4583 0 18.6763Z" fill="#FEFEFE"/>
<path d="M31.0791 0.758789C35.7384 0.841717 40.5332 0.780833 45.2028 0.776977L45.2354 58.7891C44.657 58.3078 40.4826 49.297 39.8513 47.9752L34.2442 36.24C33.8047 35.319 31.4059 30.4158 31.3711 29.8449C30.7833 20.2639 31.0666 10.3941 31.0791 0.758789Z" fill="#FEFEFE"/>
<path d="M342.23 18.7144C343.765 20.1123 354.252 53.1155 356.001 57.2016C356.567 58.5206 356.346 75.2044 356.284 78.2158C351.891 78.3545 346.701 78.2417 342.252 78.2435C342.249 58.478 342.439 38.4494 342.23 18.7144Z" fill="#FEFEFE"/>
<path d="M271.852 18.6929C272.968 19.4979 283.863 53.2097 285.562 57.1285C286.006 58.1509 285.965 64.1094 285.961 65.8102L285.925 78.2124C281.272 78.2603 276.619 78.2684 271.967 78.2366L271.933 41.3893C271.936 33.9215 272.063 26.1135 271.852 18.6929Z" fill="#FEFEFE"/>
<path d="M128.425 52.7549L142.654 56.4025C142.583 57.4603 142.47 58.5154 142.318 59.5645C141.24 66.6138 138.67 71.3849 132.949 75.5903C129.646 77.8922 126.09 78.6155 122.221 79.2193L122.203 64.6617C128.596 62.9606 128.377 58.2318 128.425 52.7549Z" fill="#FEFEFE"/>
<path d="M122.243 0.00537109C129.248 0.357822 135.334 3.62223 139.05 9.64293C141.56 13.7093 142.135 17.6934 142.665 22.3139L139.484 23.2657L128.466 26.2709C128.447 20.6983 128.609 15.8607 122.215 14.1505L122.243 0.00537109Z" fill="#FEFEFE"/>
<path d="M181.595 53.3994C183.122 54.7825 179.756 61.9919 188.688 64.7372L188.687 79.1863C184.731 78.7852 182.126 77.8682 178.701 75.9699C171.821 71.2371 168.935 65.4841 168.238 57.168C172.699 55.9423 177.151 54.6861 181.595 53.3994Z" fill="#FEFEFE"/>
<path d="M193.203 0C204.834 0.587086 210.426 8.99752 212.28 19.5765L209.303 20.4257C206.422 21.4422 201.821 22.6203 198.762 23.5137C198.502 19.0769 197.976 15.6752 193.262 14.1413L193.203 0Z" fill="#FEFEFE"/>
</svg>
