<svg width="169" height="126" viewBox="0 0 169 126" fill="none" xmlns="http://www.w3.org/2000/svg">
<path d="M76.8166 92.8404L96.6151 92.8326L96.6085 99.2594L89.615 99.2664L89.6172 117.782V124.954L83.8298 124.951L83.8341 99.2662L76.8145 99.2694L76.8166 92.8404Z" fill="#FEFFFF"/>
<path d="M40.2579 92.8377L46.2301 92.8326V124.822C44.2536 124.786 42.1738 125.287 40.5948 124.543C40.1074 123.824 40.2714 123.566 40.2624 122.578L40.2647 111.287L31.9364 111.284L31.9297 104.939L40.2669 104.944L40.2579 92.8377Z" fill="#FEFFFF"/>
<path d="M59.9781 92.1778C60.1205 92.1588 60.6393 92.196 60.8167 92.2052C61.3925 92.8972 61.1254 97.109 61.11 98.2708C58.9951 98.8837 57.4013 100.518 56.8496 102.682C55.5207 107.868 55.1025 116.823 61.191 118.904L61.1889 125.173C59.6038 124.9 58.9382 124.76 57.4298 124.212C57.1276 124.061 56.8299 123.897 56.5409 123.72C48.8738 119.048 48.4732 104.936 52.4819 97.562C54.1589 94.4764 56.7051 93.0204 59.9781 92.1778Z" fill="#FEFFFF"/>
<path d="M62.9579 92.1725C63.1721 92.1799 63.3863 92.1988 63.5982 92.2292C75.7426 93.9448 76.6306 112.089 71.2333 120.434C70.3877 121.74 69.3212 122.566 68.0851 123.489C66.2065 124.555 65.2225 124.773 63.094 125.173L63.0917 119.061C69.2409 116.112 68.8817 107.789 67.0276 102.048C66.4162 100.159 64.7807 98.9699 62.9512 98.2729L62.9579 92.1725Z" fill="#FEFFFF"/>
<path d="M100.151 92.8386L106.293 92.8326L106.266 124.954L100.133 124.947L100.151 92.8386Z" fill="#FEFFFF"/>
<path d="M24.2324 92.8388L29.9526 92.8326L29.9483 124.954L24.2346 124.953L24.2324 92.8388Z" fill="#FEFFFF"/>
<path d="M123.234 92.839L129.175 92.8326V124.954L123.237 124.949L123.234 92.839Z" fill="#FEFFFF"/>
<path d="M108.055 118.574L119.495 118.573L119.491 124.953L108.059 124.95L108.055 118.574Z" fill="#FEFFFF"/>
<path d="M108.055 92.8379L119.055 92.8326L119.038 99.2072L108.055 99.2128V92.8379Z" fill="#FEFFFF"/>
<path d="M130.717 118.576L141.497 118.573V124.953L130.721 124.944L130.717 118.576Z" fill="#FEFFFF"/>
<path d="M108.055 105.376L115.315 105.373V111.753L108.066 111.751L108.055 105.376Z" fill="#FEFFFF"/>
<path d="M84.0859 0.0069588L90.3537 0.00585938L90.3497 32.7567C88.3032 32.7092 86.133 32.7686 84.0762 32.7954L84.07 29.9875L84.0667 18.8785L75.2689 18.886L75.2676 12.4362L84.0751 12.4307L84.0859 0.0069588Z" fill="#FEFFFF"/>
<path d="M96.0065 0.00734927L102.37 0.00646973C102.48 10.846 102.37 21.8795 102.368 32.7351L95.9873 32.7701C95.8696 28.8879 95.975 24.4466 95.9759 20.5285L96.0065 0.00734927Z" fill="#FEFFFF"/>
<path d="M49.2228 0.00524902L55.5381 0.00590868C55.7798 10.5211 55.6151 22.2453 55.5398 32.8129C53.5256 32.7121 51.2391 32.7614 49.1992 32.7656L49.2228 0.00524902Z" fill="#FEFFFF"/>
<path d="M67.0771 0.00607926L73.3999 0.00585938C73.6205 10.5732 73.4357 22.1128 73.3919 32.7299L67.0742 32.7558L67.0771 0.00607926Z" fill="#FEFFFF"/>
<path d="M104.257 26.2312L116.466 26.2194C116.543 28.3827 116.488 30.6103 116.461 32.7804L104.293 32.7349C104.215 30.645 104.258 28.3389 104.257 26.2312Z" fill="#FEFFFF"/>
<path d="M104.277 0.00716177L116.071 0.00012207C116.113 2.21185 116.098 4.42446 116.026 6.63552L104.28 6.61352C104.238 4.41148 104.237 2.20899 104.277 0.00716177Z" fill="#FEFFFF"/>
<path d="M104.26 12.6224C107.556 12.5385 111.196 12.6118 114.518 12.6195C114.564 14.6909 114.515 16.9125 114.505 18.996C111.091 19.0369 107.676 19.0393 104.261 19.003L104.26 12.6224Z" fill="#FEFFFF"/>
<path d="M57.4102 0.0078634L63.6707 0.00500488C63.6731 2.21321 63.6619 4.42142 63.637 6.62963L57.4082 6.62985L57.4102 0.0078634Z" fill="#FEFFFF"/>
<path d="M41.0104 0.00463867L47.2967 0.00573978C47.3328 2.21373 47.3218 4.42237 47.2635 6.63014L41.0108 6.63058C40.972 4.44812 41.005 2.19349 41.0104 0.00463867Z" fill="#FEFFFF"/>
<path d="M8.24425 44.8426C8.63477 44.7923 8.93793 44.8178 9.3258 44.8371C10.0749 45.645 9.72313 49.3378 9.70773 50.6656C7.9391 51.244 6.33657 52.3304 6.86678 54.5456C7.53142 56.8324 10.7572 57.5428 12.8109 58.1687C16.6828 59.3488 22.2697 61.1469 23.1319 65.8027C24.2733 71.9668 21.4787 76.6398 15.2442 78.0804C14.6442 78.2086 14.0034 78.4269 13.4824 78.1187C12.7251 77.0472 13.1275 73.801 13.128 72.1259C15.2235 71.5891 17.129 70.3535 16.2694 67.9398C14.7439 63.6567 7.46807 64.0671 4.10262 61.5363C2.15337 60.0706 0.790203 59.0139 0.229626 56.4638C-0.907369 49.8075 2.24269 46.2562 8.24425 44.8426Z" fill="#FEFFFF"/>
<path d="M41.059 44.6676C51.9542 45.582 54.1578 57.1136 52.8162 66.1101C52.1643 70.4812 50.4113 74.0238 46.7741 76.6381C44.7316 77.807 43.8179 77.9773 41.5501 78.4157L41.5424 71.887C43.8604 71.0165 45.2638 69.4289 45.8528 67.0146C47.127 61.7907 47.2956 52.8096 40.9468 50.9301C40.9385 49.3344 40.8465 46.1095 41.059 44.6676Z" fill="#FEFFFF"/>
<path d="M38.7135 44.6768C39.1662 45.1729 38.9841 49.9248 38.9777 50.9487C36.7129 51.8228 35.2407 53.5985 34.703 55.9453C33.5244 61.0879 33.3108 70.1194 39.6333 71.8969L39.6452 78.4733C37.7391 78.1143 36.6905 77.8681 34.9148 77.0822C34.3494 76.7722 33.8078 76.4211 33.294 76.0315C26.2499 70.7729 25.6677 56.0053 30.6938 49.0703C32.66 46.3574 35.4631 45.1293 38.7135 44.6768Z" fill="#FEFFFF"/>
<path d="M91.7754 45.3288C93.5906 45.1796 96.5107 45.2618 98.4091 45.2589L105.55 66.084C106.75 69.6072 108.662 74.7184 109.596 78.2256L102.789 78.2399C100.402 70.3 96.9487 61.8021 94.4892 53.84C93.9917 52.2295 91.8875 46.6376 91.7754 45.3288Z" fill="#FEFFFF"/>
<path d="M150.961 45.3165C152.77 45.1759 155.89 45.2699 157.797 45.267C160.864 54.6043 164.253 63.8671 167.366 73.1928C167.922 74.865 168.558 76.5233 169.001 78.2307L162.133 78.2399C159.692 70.4507 156.603 62.4755 154.09 54.6776C153.108 51.6305 151.815 48.37 150.961 45.3165Z" fill="#FEFFFF"/>
<path d="M58.1728 45.281L64.9804 45.2688L64.9639 77.8298L58.1602 77.8256L58.1728 45.281Z" fill="#FEFFFF"/>
<path d="M112.676 45.2512L119.027 45.2389L130.589 67.2393C131.871 69.6762 135.309 75.8571 136.216 78.2217L129.987 78.2399C128.924 75.8777 126.594 71.8658 125.287 69.4433C122.353 64.0123 119.451 58.5644 116.579 53.1C115.798 51.6166 113.029 46.5865 112.676 45.2512Z" fill="#FEFFFF"/>
<path d="M149.244 47.4387C149.869 47.9024 152.317 55.7356 152.715 56.9089C150.556 63.3193 148.277 71.6276 146.37 78.239L143.465 78.2397L139.734 78.2323L149.244 47.4387Z" fill="#FEFFFF"/>
<path d="M89.9248 47.2189C90.3771 47.7742 92.9537 55.7795 93.3163 56.8455L86.9289 78.2398L83.8736 78.236L80.3359 78.2331C83.1503 68.2237 86.7659 57.1635 89.9248 47.2189Z" fill="#FEFFFF"/>
<path d="M129.918 45.2449L136.616 45.2389C136.622 54.9413 136.72 64.8111 136.585 74.4998C135.501 72.756 130.13 62.6403 130.018 61.2028C129.698 57.1264 129.892 49.5874 129.918 45.2449Z" fill="#FEFFFF"/>
<path d="M112.903 50.519C113.293 50.8363 118.935 61.3869 119.078 62.276C119.717 66.2223 119.435 74.0272 119.42 78.2399L112.895 78.2361L112.903 50.519Z" fill="#FEFFFF"/>
<path d="M6.16642 67.2274L6.55298 67.2373C7.00003 67.907 6.99276 68.8596 7.53464 69.7122C8.55613 71.3189 9.49007 71.6498 11.1696 72.1019L11.1692 78.4365C9.38424 78.1347 8.33503 77.9842 6.61611 77.3532C2.41751 75.371 1.11661 72.8279 0.0742188 68.5435L6.16642 67.2274Z" fill="#FEFFFF"/>
<path d="M66.9629 71.2827C70.4502 71.1743 74.435 71.2659 77.9632 71.2588L77.9496 77.8296L66.9679 77.8273L66.9629 71.2827Z" fill="#FEFFFF"/>
<path d="M11.7521 44.6611C16.2545 45.0633 19.6571 46.6689 21.591 50.978C22.1038 52.1211 22.6347 53.5404 21.2718 54.0499C19.6252 54.475 17.6681 54.8593 15.9863 55.2305C15.1213 52.3757 14.7486 51.3397 11.6676 50.6563C11.6617 48.8505 11.5948 46.4018 11.7521 44.6611Z" fill="#FEFFFF"/>
<path d="M92.8803 65.0389L96.1088 65.0811C96.5428 66.3345 98.1688 70.2576 97.5937 71.3504L96.7141 71.4191H91.1152L92.8803 65.0389Z" fill="#FEFFFF"/>
<path d="M152.353 65.2594L155.709 65.269C156.053 66.5812 157.799 70.3979 157.219 71.3624L156.412 71.4194L150.516 71.4196C151.166 69.4306 151.76 67.2784 152.353 65.2594Z" fill="#FEFFFF"/>
</svg>
