<svg width="154" height="24" viewBox="0 0 154 24" fill="none" xmlns="http://www.w3.org/2000/svg">
<path d="M27.6145 18.7508L23.0336 23.4584C22.9338 23.5611 22.8132 23.6429 22.6793 23.6986C22.5454 23.7543 22.401 23.7829 22.2552 23.7825H0.532667C0.429091 23.7825 0.327566 23.7534 0.241081 23.6989C0.176146 23.6588 0.121201 23.6052 0.0801806 23.5421C0.0391597 23.4791 0.0130773 23.408 0.00380035 23.3341C-0.00547661 23.2601 0.00228139 23.1851 0.026519 23.1144C0.0507566 23.0436 0.0908743 22.979 0.144 22.925L4.72459 18.2177C4.82443 18.115 4.94503 18.0333 5.07892 17.9775C5.21281 17.9217 5.35714 17.893 5.50295 17.8933H27.2255C27.3291 17.8933 27.4306 17.9224 27.5171 17.9769C27.5821 18.017 27.637 18.0706 27.6781 18.1336C27.7192 18.1967 27.7453 18.2677 27.7546 18.3417C27.7639 18.4156 27.7562 18.4907 27.732 18.5614C27.7077 18.6321 27.6676 18.6968 27.6145 18.7508ZM23.0336 9.27087C22.9338 9.1682 22.8132 9.08646 22.6793 9.03072C22.5454 8.97498 22.401 8.94643 22.2552 8.94684H0.532667C0.429091 8.94684 0.327566 8.9759 0.241081 9.03008C0.154255 9.08458 0.0862302 9.1622 0.0448682 9.25337C0.00351355 9.34439 -0.00913908 9.44519 0.0084938 9.54313C0.0261267 9.64107 0.0732618 9.73181 0.144 9.804L4.72459 14.5116C4.82445 14.6142 4.94506 14.696 5.07895 14.7517C5.21284 14.8074 5.35716 14.836 5.50295 14.8356H27.2255C27.3291 14.8356 27.4303 14.8066 27.5168 14.7521C27.6033 14.6976 27.6713 14.6203 27.7126 14.5294C27.754 14.4385 27.7668 14.3379 27.7493 14.24C27.7319 14.1422 27.685 14.0514 27.6145 13.9791L23.0336 9.27087ZM0.534034 5.88947H22.2566C22.4024 5.88937 22.5466 5.86055 22.6804 5.80478C22.8142 5.74901 22.9349 5.66746 23.035 5.5651L27.6159 0.85716C27.6863 0.784796 27.7333 0.694068 27.7509 0.596202C27.7685 0.498335 27.756 0.397625 27.715 0.30653C27.6737 0.215364 27.6056 0.138071 27.5188 0.083569C27.4319 0.028996 27.3305 -3.47502e-05 27.2269 3.12168e-08H5.50431C5.35865 0.000101524 5.21454 0.028887 5.08077 0.0845993C4.94701 0.140312 4.82639 0.221782 4.7263 0.324036L0.145368 5.03165C0.0750097 5.10398 0.0281253 5.19465 0.0105075 5.29245C-0.00711027 5.39025 0.00531065 5.49089 0.0462355 5.58195C0.0872557 5.67278 0.155281 5.75041 0.241765 5.80491C0.327907 5.85941 0.429091 5.88881 0.532667 5.88914H0.534376L0.534034 5.88947Z" fill="white"/>
<path d="M49.6919 2.23995H41.1274V4.27715H47.415C48.6816 4.27715 49.6919 5.25268 49.6919 6.44343V8.22237C49.6919 9.42747 48.6816 10.3887 47.415 10.3887H38.9863V8.35147H47.5508V6.31429H41.2631C39.9966 6.31429 38.9863 5.33876 38.9863 4.14801V2.36907C38.9863 1.16398 39.9966 0.202777 41.2631 0.202777H49.6919V2.23995ZM60.0737 0.202777C61.3404 0.202777 62.366 1.16398 62.366 2.36907V8.22237C62.366 9.42747 61.3404 10.3887 60.0737 10.3887H53.4848C52.2182 10.3887 51.2079 9.42747 51.2079 8.22237V2.36907C51.2079 1.16398 52.2182 0.202777 53.4848 0.202777H60.0737ZM60.2096 2.23995H53.349V8.35147H60.2096V2.23995ZM66.1785 8.27973H74.5317V10.4747H65.3491C64.5346 10.4747 63.8713 9.84349 63.8713 9.06881V0.116699H66.1785V8.27973ZM85.3373 0.202777C86.3625 0.202777 87.1919 0.977478 87.1919 1.95303V10.3887H85.0354V7.04596H78.1749V10.3887H76.0337V1.95303C76.0337 0.977478 76.8482 0.202777 77.8734 0.202777H85.3373ZM85.0354 2.23995H78.1749V5.00877H85.0354V2.23995ZM97.6989 0.202777H99.8553V9.06881C99.8553 9.80048 99.2218 10.3887 98.4529 10.3887H96.7941C96.2667 10.403 95.7992 10.1304 95.5578 9.68567L91.3965 2.23995H90.8383V10.3887H88.6972V1.53698C88.6972 0.790975 89.3154 0.202777 90.0847 0.202777H91.8337C92.3463 0.202777 92.8287 0.461011 93.0701 0.905745L97.2314 8.35147H97.6989V0.202777ZM110.664 0.202777C111.689 0.202777 112.518 0.977478 112.518 1.95303V10.3887H110.362V7.04596H103.502V10.3887H101.361V1.95303C101.361 0.977478 102.175 0.202777 103.2 0.202777H110.664ZM110.362 2.23995H103.502V5.00877H110.362V2.23995ZM49.4807 15.5173H41.1274V17.5545H49.4807V19.5916H41.1274V23.666H38.9863V13.4801H49.4807V15.5173ZM59.8533 13.4801C61.1194 13.4801 62.1451 14.4413 62.1451 15.6464V21.4997C62.1451 22.7048 61.1194 23.666 59.8533 23.666H53.2639C51.9972 23.666 50.9869 22.7048 50.9869 21.4997V15.6464C50.9869 14.4413 51.9972 13.4801 53.2639 13.4801H59.8533ZM59.9886 15.5173H53.128V21.6288H59.9886V15.5173ZM72.6521 13.4801H74.808V20.2516C74.7932 22.1453 73.1949 23.666 71.2045 23.666H67.239C65.2486 23.666 63.6503 22.1453 63.6503 20.2516V13.4801H65.7915V19.8355C65.7915 20.8254 66.6357 21.6288 67.6763 21.6288H70.7672C71.8078 21.6288 72.6521 20.8254 72.6521 19.8355V13.4801ZM85.3155 13.4801H87.4715V22.3461C87.4715 23.0778 86.8384 23.666 86.0695 23.666H84.4107C83.8828 23.6803 83.4158 23.4078 83.1744 22.963L79.0126 15.5173H78.4549V23.666H76.3138V14.8143C76.3138 14.0683 76.9319 13.4801 77.7009 13.4801H79.4498C79.9625 13.4801 80.4453 13.7384 80.6862 14.1831L84.848 21.6288H85.3155V13.4801ZM96.5313 13.4801C98.5217 13.4801 100.12 15.0152 100.135 16.8946V20.2516C100.12 22.1453 98.5217 23.666 96.5313 23.666H88.9772V13.4801H96.5313ZM97.9789 17.3249C97.9789 16.3207 97.1342 15.5173 96.0941 15.5173H91.1183V21.6288H96.0941C97.1342 21.6288 97.9789 20.8254 97.9789 19.8355V17.3249ZM110.944 13.4801C111.969 13.4801 112.798 14.2548 112.798 15.2304V23.666H110.642V20.3233H103.782V23.666H101.641V15.2304C101.641 14.2548 102.455 13.4801 103.48 13.4801H110.944ZM110.642 15.5173H103.782V18.2861H110.642V15.5173ZM114.304 13.4801H125.009V15.5173H120.727V23.666H118.586V15.5173H114.304V13.4801ZM128.667 23.666H126.526V13.4801H128.667V23.666ZM139.043 13.4801C140.31 13.4801 141.335 14.4413 141.335 15.6464V21.4997C141.335 22.7048 140.31 23.666 139.043 23.666H132.454C131.187 23.666 130.177 22.7048 130.177 21.4997V15.6464C130.177 14.4413 131.187 13.4801 132.454 13.4801H139.043ZM139.179 15.5173H132.318V21.6288H139.179V15.5173ZM151.842 13.4801H153.998V22.3461C153.998 23.0778 153.365 23.666 152.596 23.666H150.937C150.409 23.6803 149.942 23.4078 149.701 22.963L145.539 15.5173H144.982V23.666H142.84V14.8143C142.84 14.0683 143.459 13.4801 144.228 13.4801H145.977C146.489 13.4801 146.972 13.7384 147.213 14.1831L151.375 21.6288H151.842V13.4801Z" fill="white"/>
</svg>
