<svg width="827" height="73" viewBox="0 0 827 73" fill="none" xmlns="http://www.w3.org/2000/svg">
<path d="M209.073 0.382713C209.895 0.276672 210.533 0.330386 211.349 0.371135C212.926 2.07149 212.185 9.84395 212.153 12.6385C208.431 13.8559 205.058 16.1425 206.174 20.805C207.572 25.6181 214.362 27.1133 218.685 28.4307C226.834 30.9146 238.593 34.6991 240.408 44.4984C242.81 57.4724 236.928 67.3078 223.806 70.3399C222.543 70.6099 221.194 71.0692 220.098 70.4205C218.504 68.1654 219.351 61.3329 219.352 57.8072C223.762 56.6773 227.773 54.0768 225.964 48.9966C222.753 39.9817 207.439 40.8453 200.356 35.5188C196.253 32.4339 193.384 30.2098 192.204 24.8425C189.811 10.8326 196.441 3.35787 209.073 0.382713Z" fill="#FEFFFF"/>
<path d="M690.864 2.45338L732.535 2.43701L732.521 15.9637L717.801 15.9786L717.806 54.9488V70.0437L705.625 70.0389L705.634 15.9781L690.859 15.9848L690.864 2.45338Z" fill="#FEFFFF"/>
<path d="M90.699 3.0863L103.891 3.08398L103.883 72.0164C99.5754 71.9164 95.0078 72.0415 90.6787 72.0979L90.6657 66.1879L90.6588 42.8062L72.1414 42.8219L72.1387 29.2469L90.6763 29.2353L90.699 3.0863Z" fill="#FEFFFF"/>
<path d="M278.139 0.0136719C301.07 1.93815 305.708 26.2094 302.884 45.1449C301.512 54.3449 297.823 61.8011 290.167 67.3037C285.868 69.7639 283.945 70.1223 279.172 71.0452L279.156 57.3039C284.035 55.4716 286.989 52.1301 288.228 47.0485C290.91 36.0536 291.265 17.1506 277.902 13.1947C277.885 9.83609 277.691 3.04857 278.139 0.0136719Z" fill="#FEFFFF"/>
<path d="M273.205 0.0327148C274.158 1.07691 273.775 11.0785 273.761 13.2336C268.994 15.0734 265.896 18.8107 264.764 23.7502C262.283 34.5742 261.834 53.5833 275.141 57.3243L275.166 71.1661C271.154 70.4104 268.947 69.8922 265.21 68.2382C264.02 67.5857 262.88 66.8467 261.799 66.0266C246.972 54.9586 245.747 23.8766 256.326 9.28002C260.464 3.57003 266.364 0.985229 273.205 0.0327148Z" fill="#FEFFFF"/>
<path d="M613.923 2.44756L626.493 2.43701V69.7658C622.333 69.6901 617.956 70.7452 614.633 69.1791C613.607 67.6652 613.952 67.124 613.933 65.0435L613.938 41.278L596.409 41.2722L596.395 27.9173L613.942 27.9288L613.923 2.44756Z" fill="#FEFFFF"/>
<path d="M384.885 1.40499C388.705 1.09104 394.851 1.26404 398.847 1.25792L413.876 45.0896C416.403 52.5052 420.427 63.263 422.393 70.6446L408.066 70.6748C403.043 53.9632 395.773 36.0774 390.597 19.3191C389.549 15.9293 385.121 4.15985 384.885 1.40499Z" fill="#FEFFFF"/>
<path d="M509.449 1.37914C513.257 1.08317 519.824 1.28112 523.837 1.27499C530.292 20.9278 537.426 40.4236 543.979 60.0519C545.149 63.5715 546.487 67.0619 547.42 70.6555L532.963 70.6748C527.826 54.2805 521.324 37.4946 516.035 21.0819C513.968 14.6686 511.247 7.80612 509.449 1.37914Z" fill="#FEFFFF"/>
<path d="M314.161 1.3049L328.49 1.2793L328.455 69.8121L314.135 69.8033L314.161 1.3049Z" fill="#FEFFFF"/>
<path d="M655.426 1.05912C655.726 1.01904 656.818 1.09731 657.191 1.11664C658.403 2.57319 657.841 11.4379 657.809 13.8833C653.357 15.1734 650.003 18.6122 648.842 23.1667C646.045 34.0836 645.164 52.931 657.979 57.3101L657.975 70.5068C654.639 69.9315 653.238 69.6373 650.063 68.4835C649.427 68.1643 648.8 67.8191 648.192 67.4485C632.055 57.6147 631.211 27.9117 639.649 12.3914C643.178 5.897 648.537 2.83254 655.426 1.05912Z" fill="#FEFFFF"/>
<path d="M115.792 3.08681L129.186 3.08496C129.417 25.8995 129.185 49.1224 129.183 71.9707L115.752 72.0443C115.504 63.8731 115.726 54.5253 115.728 46.2787L115.792 3.08681Z" fill="#FEFFFF"/>
<path d="M428.875 1.24176L442.243 1.21582L466.577 47.5213C469.277 52.6502 476.512 65.6596 478.422 70.6366L465.312 70.6748C463.074 65.7029 458.17 57.2589 455.419 52.1601C449.244 40.7292 443.135 29.2628 437.091 17.7616C435.447 14.6393 429.618 4.05222 428.875 1.24176Z" fill="#FEFFFF"/>
<path d="M17.3249 3.08252L30.6171 3.08391C31.126 25.2158 30.7791 49.8923 30.6208 72.1345C26.3815 71.9224 21.5689 72.0261 17.2754 72.0349L17.3249 3.08252Z" fill="#FEFFFF"/>
<path d="M661.7 1.04785C662.15 1.06336 662.601 1.1033 663.047 1.1672C688.608 4.77807 690.477 42.9669 679.117 60.5312C677.338 63.2794 675.093 65.0193 672.491 66.9613C668.537 69.2058 666.466 69.6639 661.986 70.5068L661.981 57.6411C674.924 51.4352 674.168 33.916 670.265 21.834C668.979 17.8576 665.536 15.3546 661.686 13.8877L661.7 1.04785Z" fill="#FEFFFF"/>
<path d="M54.9045 3.08445L68.2123 3.08398C68.6768 25.3257 68.2878 49.6136 68.1957 71.96L54.8984 72.0146L54.9045 3.08445Z" fill="#FEFFFF"/>
<path d="M739.98 2.44953L752.907 2.43701L752.85 70.0437L739.941 70.0307L739.98 2.44953Z" fill="#FEFFFF"/>
<path d="M580.188 2.45001L592.227 2.43701L592.218 70.0437L580.192 70.0418L580.188 2.45001Z" fill="#FEFFFF"/>
<path d="M788.564 2.45049L801.067 2.43701V70.0437L788.569 70.0336L788.564 2.45049Z" fill="#FEFFFF"/>
<path d="M505.845 5.84668C507.162 6.82266 512.314 23.3096 513.151 25.7791C508.608 39.2714 503.811 56.7582 499.795 70.6736L493.681 70.675L485.83 70.6596L505.845 5.84668Z" fill="#FEFFFF"/>
<path d="M380.989 5.38379C381.941 6.55266 387.364 23.4017 388.127 25.6454L374.683 70.6752L368.253 70.6672L360.807 70.6611C366.73 49.5938 374.34 26.3147 380.989 5.38379Z" fill="#FEFFFF"/>
<path d="M465.167 1.22856L479.264 1.21582C479.278 21.6369 479.484 42.4104 479.198 62.8028C476.918 59.1326 465.612 37.8415 465.378 34.8158C464.704 26.2361 465.111 10.3683 465.167 1.22856Z" fill="#FEFFFF"/>
<path d="M429.356 12.3296C430.177 12.9974 442.051 35.2037 442.353 37.0751C443.697 45.3811 443.104 61.8084 443.072 70.6751L429.338 70.6671L429.356 12.3296Z" fill="#FEFFFF"/>
<path d="M133.158 58.2818L158.854 58.2568C159.016 62.8101 158.901 67.4986 158.845 72.0662L133.233 71.9703C133.069 67.5717 133.16 62.718 133.158 58.2818Z" fill="#FEFFFF"/>
<path d="M133.198 3.08659L158.021 3.07178C158.11 7.72692 158.079 12.3839 157.926 17.0377L133.204 16.9914C133.116 12.3566 133.114 7.7209 133.198 3.08659Z" fill="#FEFFFF"/>
<path d="M204.7 47.4971L205.513 47.5179C206.454 48.9275 206.439 50.9325 207.579 52.7269C209.729 56.1086 211.695 56.805 215.23 57.7566L215.229 71.0895C211.472 70.4542 209.264 70.1374 205.646 68.8094C196.809 64.6372 194.071 59.2847 191.877 50.2671L204.7 47.4971Z" fill="#FEFFFF"/>
<path d="M332.658 56.0321C339.998 55.804 348.385 55.9968 355.811 55.9818L355.783 69.8117L332.669 69.807L332.658 56.0321Z" fill="#FEFFFF"/>
<path d="M216.456 0C225.933 0.846473 233.095 4.22589 237.165 13.2954C238.244 15.7014 239.362 18.6886 236.493 19.7611C233.027 20.6557 228.908 21.4647 225.368 22.2459C223.548 16.2372 222.763 14.0566 216.279 12.6184C216.266 8.81758 216.125 3.66373 216.456 0Z" fill="#FEFFFF"/>
<path d="M756.613 56.6167L780.692 56.6147L780.683 70.0435L756.623 70.0373L756.613 56.6167Z" fill="#FEFFFF"/>
<path d="M756.613 2.44798L779.766 2.43701L779.729 15.8538L756.613 15.8657V2.44798Z" fill="#FEFFFF"/>
<path d="M804.311 56.62L827 56.6147V70.0435L804.32 70.0229L804.311 56.62Z" fill="#FEFFFF"/>
<path d="M133.162 29.6385C140.1 29.4621 147.761 29.6163 154.753 29.6325C154.85 33.9922 154.747 38.6682 154.727 43.0534C147.54 43.1395 140.352 43.1446 133.164 43.0682L133.162 29.6385Z" fill="#FEFFFF"/>
<path d="M756.613 28.8387L771.894 28.8315V42.2603L756.636 42.2555L756.613 28.8387Z" fill="#FEFFFF"/>
<path d="M34.5549 3.08756L47.7318 3.08154C47.7369 7.72927 47.7133 12.377 47.6609 17.0247L34.5508 17.0252L34.5549 3.08756Z" fill="#FEFFFF"/>
<path d="M0.0384109 3.08105L13.2694 3.08337C13.3454 7.73064 13.3222 12.3793 13.1995 17.0261L0.0392446 17.027C-0.0425317 12.4335 0.0270659 7.68804 0.0384109 3.08105Z" fill="#FEFFFF"/>
<path d="M387.213 42.8911L394.008 42.9798C394.922 45.6178 398.344 53.8752 397.134 56.1752L395.282 56.3198H383.498L387.213 42.8911Z" fill="#FEFFFF"/>
<path d="M512.39 43.3545L519.453 43.3746C520.176 46.1366 523.852 54.1698 522.629 56.1997L520.931 56.3197L508.521 56.3202C509.89 52.1339 511.14 47.604 512.39 43.3545Z" fill="#FEFFFF"/>
</svg>
